<?xml version="1.0" encoding="UTF-8"?>
<svg width="122px" height="122px" viewBox="0 0 122 122" version="1.1" xmlns="http://www.w3.org/2000/svg" xmlns:xlink="http://www.w3.org/1999/xlink">
    <!-- Generator: Sketch 40.3 (33839) - http://www.bohemiancoding.com/sketch -->
    <title>behance</title>
    <desc>Created with Sketch.</desc>
    <defs></defs>
    <g id="Page-1" stroke="none" stroke-width="1" fill="none" fill-rule="evenodd">
        <g id="behance" fill="#FFFFFF">
            <path d="M61.04,0.166 C27.497,0.166 0.207,27.456 0.207,61 C0.207,94.544 27.497,121.834 61.04,121.834 C94.584,121.834 121.875,94.544 121.875,61 C121.875,27.456 94.584,0.166 61.04,0.166 L61.04,0.166 Z M61.04,115.834 C30.805,115.834 6.207,91.235 6.207,61 C6.207,30.765 30.805,6.166 61.04,6.166 C91.277,6.166 115.875,30.765 115.875,61 C115.875,91.235 91.277,115.834 61.04,115.834 L61.04,115.834 Z" id="Shape"></path>
            <path d="M54.31,59.642 C56.181,58.795 57.664,57.525 58.757,55.83 C59.85,54.136 60.397,52.273 60.397,50.244 C60.397,48.373 59.954,46.683 59.068,45.177 C58.181,43.67 57.072,42.463 55.743,41.557 C54.413,40.651 52.906,40.056 51.222,39.77 C49.538,39.484 46.983,39.341 43.554,39.341 L26.236,39.341 L26.236,82.662 L40.981,82.662 C46.556,82.621 50.073,82.523 51.531,82.365 C53.855,82.109 55.811,81.424 57.396,80.312 C58.983,79.199 60.234,77.71 61.15,75.849 C62.066,73.988 62.523,72.072 62.523,70.101 C62.523,67.599 61.814,65.423 60.396,63.57 C58.979,61.721 56.948,60.41 54.31,59.642 L54.31,59.642 Z M34.982,46.551 L40.006,46.551 C44.123,46.551 46.615,46.6 47.483,46.698 C48.94,46.876 50.039,47.384 50.777,48.219 C51.516,49.058 51.885,50.146 51.885,51.485 C51.885,52.884 51.457,54.012 50.6,54.869 C49.743,55.726 48.566,56.243 47.069,56.421 C46.242,56.52 44.124,56.568 40.715,56.568 L34.982,56.568 L34.982,46.551 L34.982,46.551 Z M52.256,73.367 C51.438,74.283 50.379,74.859 49.079,75.096 C48.231,75.274 46.231,75.362 43.08,75.362 L34.982,75.362 L34.982,63.779 L42.045,63.779 C46.024,63.779 48.609,63.984 49.802,64.398 C50.993,64.812 51.905,65.472 52.535,66.378 C53.165,67.284 53.48,68.388 53.48,69.689 C53.481,71.225 53.073,72.451 52.256,73.367 L52.256,73.367 Z" id="Shape"></path>
            <path d="M91.27,54.191 C88.432,51.109 84.561,49.567 79.653,49.567 C75.284,49.567 71.671,51.04 68.813,53.985 C65.955,56.93 64.528,61.002 64.528,66.203 C64.528,70.557 65.614,74.162 67.79,77.019 C70.542,80.585 74.788,82.367 80.522,82.367 C84.147,82.367 87.165,81.574 89.577,79.988 C91.989,78.404 95.077,75.127 95.136,72.226 L86.177,72.279 C85.7,73.855 84.995,74.388 84.066,75.097 C83.132,75.806 81.984,76.161 80.617,76.161 C78.609,76.161 76.931,75.477 75.586,74.108 C74.24,72.737 73.537,70.821 73.475,68.36 L95.34,68.36 C95.461,61.998 94.106,57.275 91.27,54.191 L91.27,54.191 Z M73.627,63.277 C73.606,61.013 74.217,59.22 75.459,57.9 C76.701,56.581 78.275,55.921 80.182,55.921 C81.961,55.921 83.473,56.546 84.715,57.797 C85.957,59.048 86.61,60.875 86.672,63.277 L73.627,63.277 L73.627,63.277 Z" id="Shape"></path>
            <rect id="Rectangle-path" x="71.301" y="41.193" width="17.477" height="4.227"></rect>
        </g>
    </g>
</svg>