<?xml version="1.0" encoding="UTF-8"?>
<svg width="122px" height="122px" viewBox="0 0 122 122" version="1.1" xmlns="http://www.w3.org/2000/svg" xmlns:xlink="http://www.w3.org/1999/xlink">
    <!-- Generator: Sketch 40.3 (33839) - http://www.bohemiancoding.com/sketch -->
    <title>Untitled 3</title>
    <desc>Created with Sketch.</desc>
    <defs></defs>
    <g id="Page-1" stroke="none" stroke-width="1" fill="none" fill-rule="evenodd">
        <g id="github" fill="#FFFFFF">
            <g>
                <path d="M60.9016543,121.785072 C27.4940994,121.664636 0.768055363,94.3258198 1.0575071,60.820715 C1.32283786,27.9177869 27.9282769,0.578970296 61.7700096,0.988450368 C94.8398708,1.37384338 121.324705,28.6403987 120.938769,62.0973294 C120.576955,94.8557352 94.2127253,121.760985 60.9016543,121.785072 L60.9016543,121.785072 L60.9016543,121.785072 Z M52.362828,90.3996285 C51.9768922,90.3273674 51.8080453,90.3032802 51.6150776,90.2791932 C47.0079708,89.6288425 42.6903157,88.25588 38.8309591,85.5099547 C34.7062718,82.571333 32.1735691,78.6210547 31.1363671,73.7795549 C30.0750441,68.8417071 30.4851007,63.855685 31.256972,58.9178371 C31.7876335,55.5215611 32.9454403,52.3179818 35.598748,49.8851883 C35.9846837,49.5238824 35.9605626,49.2348376 35.7675948,48.7530964 C34.3203363,44.7546439 34.4891829,40.7321045 35.695232,36.7095648 C35.9364417,35.9146919 36.3223775,35.5774729 37.1666116,35.8906046 C38.1796927,36.2519108 39.2168948,36.5650425 40.157613,37.1190449 C42.7385577,38.6365299 44.7164778,40.7321045 46.4531884,43.1167236 C46.8873659,43.6948132 47.1768177,43.7911615 47.7798421,43.3816814 C49.2753426,42.3459376 51.0361741,42.0328059 52.7487635,41.7196741 C56.8975719,40.9488879 61.0705012,41.0934104 65.2434302,41.2861068 C67.6796492,41.4065421 70.0917471,41.8401094 72.4073609,42.7072435 C73.1309902,42.9722013 73.7822566,43.9115968 74.4576441,43.5502909 C75.1330314,43.2130719 75.543088,42.2977634 76.0737495,41.6715 C78.1963956,39.1182711 80.6326146,36.9986096 83.9130675,35.962866 C84.9743905,35.6256471 85.4568103,35.7942565 85.8186249,36.9263485 C87.0246737,40.8525398 87.1935206,44.730557 85.6738989,48.5844869 C85.4326892,49.1866635 85.4809312,49.6202307 85.9874718,50.077885 C87.989513,51.9325887 89.1473198,54.3172081 89.7503442,56.9426978 C90.7875464,61.4228915 91.0528772,65.9994335 90.7634255,70.5759756 C90.4739737,74.9598212 89.050836,78.9582737 86.1080767,82.3304624 C82.152236,86.8588303 76.9903468,89.0989271 71.177191,90.0864968 C70.5018037,90.2069321 69.8022953,90.3273674 69.078666,90.4478027 C70.7912555,93.1214666 71.6113687,95.8914788 71.6354896,98.8782747 C71.6596105,102.322725 71.6354896,105.791262 71.6354896,109.235712 L71.6354896,115.98009 C75.3018783,115.618784 82.152236,113.18599 86.92819,110.584587 C109.191853,98.4687946 120.432229,73.4423361 114.763799,48.6567481 C108.058167,19.174183 78.847662,0.554883233 49.3235846,6.93795496 C21.4397338,12.9838078 2.14295113,39.816796 6.34000135,69.2993612 C8.2938006,83.0049001 14.5893759,94.4703421 25.0096387,103.599339 C31.8841173,109.621105 39.8440401,113.643644 48.7688022,115.715132 C49.4683106,115.883741 49.7818833,115.835567 49.7577624,114.99252 C49.7095204,112.631988 49.7095204,110.247368 49.7577624,107.886836 C49.7577624,107.091963 49.6130364,106.851093 48.7446811,107.019702 C47.1768177,107.332834 45.560712,107.501443 43.9446065,107.405095 C38.8309591,107.140137 34.6821509,105.116824 31.7635124,100.781153 C30.7745523,99.3118417 30.2197699,97.6016603 29.2790517,96.1323494 C27.6147043,93.5550338 26.1433246,90.8331955 23.369412,89.1711883 C23.0075974,88.9544046 22.5734197,88.6171859 22.7905085,88.1113575 C22.9834764,87.6296163 23.5141379,87.7018774 23.9483155,87.6537032 C27.0358007,87.4128326 29.5685035,88.5690117 31.6670287,90.7850216 C32.7765935,91.9652877 33.4761019,93.4345985 34.4409411,94.7112127 C37.6490312,98.974623 43.7757596,100.80524 48.7929231,98.99871 C49.5165526,98.7337524 49.7336413,98.3724462 49.8301253,97.6257475 C50.119577,95.0966058 50.6019965,92.6156384 52.362828,90.3996285 L52.362828,90.3996285 L52.362828,90.3996285 Z" id="Shape"></path>
                <path d="M61.04,0.166 C27.497,0.166 0.207,27.456 0.207,61 C0.207,94.544 27.497,121.834 61.04,121.834 C94.584,121.834 121.875,94.544 121.875,61 C121.875,27.456 94.584,0.166 61.04,0.166 L61.04,0.166 Z M61.04,115.834 C30.805,115.834 6.207,91.235 6.207,61 C6.207,30.765 30.805,6.166 61.04,6.166 C91.277,6.166 115.875,30.765 115.875,61 C115.875,91.235 91.277,115.834 61.04,115.834 L61.04,115.834 Z" id="Shape"></path>
            </g>
        </g>
    </g>
</svg>