<?xml version="1.0" encoding="UTF-8"?>
<svg width="122px" height="122px" viewBox="0 0 122 122" version="1.1" xmlns="http://www.w3.org/2000/svg" xmlns:xlink="http://www.w3.org/1999/xlink">
    <!-- Generator: Sketch 40.3 (33839) - http://www.bohemiancoding.com/sketch -->
    <title>linkedIn</title>
    <desc>Created with Sketch.</desc>
    <defs></defs>
    <g id="Page-1" stroke="none" stroke-width="1" fill="none" fill-rule="evenodd">
        <g id="linkedIn" fill="#FFFFFF">
            <path d="M61.041,0.166 C27.498,0.166 0.208,27.456 0.208,61 C0.208,94.545 27.498,121.834 61.041,121.834 C94.585,121.834 121.876,94.545 121.876,61 C121.875,27.456 94.584,0.166 61.041,0.166 L61.041,0.166 Z M61.041,115.834 C30.806,115.834 6.208,91.236 6.208,61 C6.208,30.765 30.806,6.166 61.041,6.166 C91.276,6.166 115.876,30.765 115.876,61 C115.875,91.236 91.276,115.834 61.041,115.834 L61.041,115.834 Z" id="Shape"></path>
            <rect id="Rectangle-path" x="30.143" y="48.11" width="14.078" height="36.734"></rect>
            <ellipse id="Oval" cx="37.042" cy="35.75" rx="7.125" ry="6.5"></ellipse>
            <path d="M79.608,47.28 C76.725,47.28 74.282,47.805 72.274,48.854 C70.268,49.904 68.286,51.65 66.325,54.094 L66.325,48.11 L53.215,48.11 L53.215,84.844 L67.293,84.844 L67.293,67.203 C67.293,63.859 67.824,61.543 68.885,60.251 C69.946,58.96 71.328,58.314 73.035,58.314 C74.58,58.314 75.779,58.793 76.633,59.75 C77.487,60.707 77.912,62.338 77.912,64.645 L77.912,84.844 L92.06,84.844 L92.06,61.497 C92.06,56.654 90.958,53.074 88.755,50.756 C86.555,48.438 83.504,47.28 79.608,47.28 L79.608,47.28 Z" id="Shape"></path>
        </g>
    </g>
</svg>