<?xml version="1.0" encoding="utf-8"?>
<!-- Generator: Adobe Illustrator 17.0.0, SVG Export Plug-In . SVG Version: 6.00 Build 0)  -->
<!DOCTYPE svg PUBLIC "-//W3C//DTD SVG 1.1//EN" "http://www.w3.org/Graphics/SVG/1.1/DTD/svg11.dtd">
<svg version="1.1" id="Layer_1" xmlns="http://www.w3.org/2000/svg" xmlns:xlink="http://www.w3.org/1999/xlink" x="0px" y="0px"
	 width="68.833px" height="63.393px" viewBox="0 0 68.833 63.393" enable-background="new 0 0 68.833 63.393" xml:space="preserve">
<g>
	<path fill="#E3B141" d="M61.965,12.134c-9.66,1.027-3.637,16.219-3.637,31.495c0,14.017-8.408,13.434-9.796,13.242
		c1.016-4.011,2.074-9.686,2.175-16.219c0.172-11.258,0.519-21.821,0.519-21.821s4.69-8.487,2.023-18.358
		c-6.291-0.52-15.247,6.408-15.247,6.408s-4.958-1.213-10.677-1.213c-5.717,0-10.675,1.213-10.675,1.213S7.695-0.047,1.403,0.473
		c-2.666,9.871,2.373,17.839,2.373,17.839s0,10.735,0.344,23.032c0.312,11.071,3.497,20.504,3.881,21.604H46.66
		c18.074,0,20.38-19.318,20.38-19.318S71.836,11.085,61.965,12.134z"/>
</g>
<g>
	<path fill="#ECD9C8" d="M67.271,17.831c-0.885-3.592-2.506-5.995-5.307-5.696c-3.185,0.339-4.666,2.218-5.221,5.132
		C59.539,16.579,64.734,15.884,67.271,17.831z"/>
</g>
<g>
	<path fill="#ECD9C8" d="M13.647,8.437c0,0-5.051-6.925-11.329-6.925C1.805,9.991,8.277,14.277,8.277,14.277
		S10.613,10.308,13.647,8.437z"/>
	<path fill="#ECD9C8" d="M41.086,8.437c0,0,5.051-6.925,11.328-6.925c0.514,8.479-5.959,12.766-5.959,12.766
		S44.119,10.308,41.086,8.437z"/>
</g>
<g>
	<circle fill="#FFFFFF" cx="20.964" cy="19.345" r="3.725"/>
	<circle fill="#FFFFFF" cx="34.911" cy="19.574" r="3.725"/>
</g>
<g>
	<path fill="#754C24" d="M20.963,23.588c-2.34,0-4.243-1.904-4.243-4.244c0-2.34,1.903-4.244,4.243-4.244
		c2.342,0,4.246,1.903,4.246,4.244C25.209,21.685,23.305,23.588,20.963,23.588L20.963,23.588z M20.963,16.14
		c-1.768,0-3.205,1.439-3.205,3.205c0,1.766,1.437,3.205,3.205,3.205c1.768,0,3.207-1.439,3.207-3.205
		C24.169,17.579,22.73,16.14,20.963,16.14L20.963,16.14z"/>
	<path fill="#754C24" d="M34.91,23.817c-2.34,0-4.244-1.903-4.244-4.244c0-2.339,1.903-4.243,4.244-4.243
		c2.342,0,4.246,1.904,4.246,4.243C39.155,21.914,37.252,23.817,34.91,23.817L34.91,23.817z M34.91,16.37
		c-1.768,0-3.205,1.436-3.205,3.204c0,1.768,1.437,3.205,3.205,3.205c1.768,0,3.206-1.436,3.206-3.205
		C38.116,17.806,36.678,16.37,34.91,16.37L34.91,16.37z"/>
</g>
<g>
	<path fill="#ECD9C8" d="M28.241,26.58l-2.597,2.013c0,0,0.519,0.974,2.273,0.974c1.753,0,2.662-1.04,2.662-1.04L28.241,26.58z"/>
</g>
<g>
	<path fill="#754C24" d="M22.4,29.555c-0.357,0-0.726-0.024-1.108-0.077c-1.267-0.174-2.129-0.682-2.565-1.51
		c-0.747-1.417,0.122-3.187,0.158-3.263c0.128-0.252,0.443-0.357,0.696-0.232c0.256,0.128,0.361,0.439,0.234,0.696
		c-0.006,0.015-0.668,1.374-0.168,2.317c0.272,0.514,0.874,0.838,1.788,0.964c3.491,0.483,5.711-1.794,6.115-2.427
		c0.089-0.143,0.359-0.323,0.525-0.333c0.37,0.008,0.591,0.246,0.846,0.556c0.636,0.769,1.939,2.369,5.993,2.197
		c0.595-0.025,0.999-0.208,1.231-0.562c0.542-0.818,0.133-2.411-0.072-2.957c-0.1-0.27,0.037-0.568,0.304-0.667
		c0.271-0.102,0.566,0.032,0.67,0.3c0.094,0.251,0.896,2.49-0.032,3.897c-0.424,0.641-1.116,0.988-2.056,1.029
		c-4.436,0.203-6.102-1.687-6.807-2.535C27.337,27.918,25.322,29.555,22.4,29.555L22.4,29.555z"/>
</g>
<g>
	<path fill="#323232" d="M25.084,23.215c0,0,0,1.339,2.914,1.479c3.062,0.147,2.842-1.509,2.842-1.509s2.827,3.606-2.842,3.571
		C22.825,26.726,25.084,23.215,25.084,23.215z"/>
</g>
<g>
	<g>
		<path fill="#BC8A26" d="M6.392,17.793c-1.232,0-2.847-1.315-4.059-2.496c0.741,1.903,1.443,3.016,1.443,3.016s0,0.458,0.002,1.262
			C7.057,19.266,8.143,17.793,6.392,17.793z"/>
		<path fill="#BC8A26" d="M50.557,43.629c0.06-0.984,0.135-1.95,0.15-2.977c0.014-0.98,0.032-1.951,0.049-2.914
			c-5.249-0.602-17.691-1.689-26.373,0.316C14.55,40.323,39.975,43.557,50.557,43.629z"/>
		<path fill="#BC8A26" d="M9.835,19.351c-2.362,2.889-4.339,4.77-6.019,5.517c0.003,0.535,0.01,1.095,0.018,1.682
			c3.399-0.183,11.259-0.706,10.851-1.658c-0.519-1.212-1.525-5.541,0.017-7.966C16.245,14.501,12.953,15.542,9.835,19.351z"/>
		<path fill="#BC8A26" d="M3.889,30.691c0.012,0.717,0.024,1.455,0.039,2.209c2.654-0.34,7.82-1.342,9.719-4.157
			C15.536,25.94,8.816,27.855,3.889,30.691z"/>
		<path fill="#BC8A26" d="M3.976,35.391C4,36.604,4.029,37.844,4.061,39.113c2.044,0.434,5.108,0.766,8.546-0.02
			c6.06-1.387,14.2-4.85,19.396-5.195C36.719,33.584,15.877,31.546,3.976,35.391z"/>
		<path fill="#BC8A26" d="M50.847,33.123c0.032-1.486,0.065-2.914,0.101-4.25c-10.746-0.663-15.24,1.082-15.24,1.082
			S43.91,31.258,50.847,33.123z"/>
		<path fill="#BC8A26" d="M27.348,12.671c2.23-0.422,3.963-1.404,3.097-5.329c-0.132-0.601-0.211-1.066-0.307-1.573
			c-0.907-0.059-1.84-0.101-2.813-0.101c-0.382,0-0.749,0.018-1.123,0.028C25.966,8.583,25.846,12.956,27.348,12.671z"/>
		<path fill="#BC8A26" d="M51.21,19.345c0.011-0.331,0.017-0.513,0.017-0.513s0.623-1.147,1.284-3.05
			c-1.087,0.96-2.339,1.835-3.341,1.835C47.52,17.616,48.371,18.933,51.21,19.345z"/>
		<path fill="#BC8A26" d="M41.41,16.924c1.542,2.425,0.535,6.754,0.017,7.965c-0.364,0.846,5.812,1.354,9.581,1.585
			c0.02-0.843,0.043-1.644,0.063-2.375c-1.404-0.974-2.973-2.527-4.793-4.75C43.159,15.54,39.867,14.498,41.41,16.924z"/>
		<path fill="#BC8A26" d="M17.456,12.25c1.019-0.612,1.912-3.612,2.478-5.986c-2.003,0.306-3.284,0.618-3.284,0.618
			s-0.145-0.111-0.369-0.275c0.21,0.803,0.373,1.633,0.373,2.354C16.654,12.493,15.725,13.289,17.456,12.25z"/>
		<path fill="#BC8A26" d="M20.965,6.119l1.199,5.091c0,0,2.563,2.079,2.218,0c-0.183-1.1-0.162-3.446-0.104-5.425
			C23.078,5.869,21.959,5.984,20.965,6.119z"/>
		<path fill="#BC8A26" d="M0.96,10.265c3.099,4.958,8.185,6.052,7.008,5.356c-3.944-2.332-6.18-7.819-7.237-11.223
			C0.548,6.522,0.668,8.503,0.96,10.265z"/>
		<path fill="#BC8A26" d="M32.351,11.039c0.52,0.691,1.557,3.405,2.423,1.096c0.461-1.226-0.315-3.832-1.145-6.024
			c-0.453-0.06-0.932-0.115-1.433-0.168C32.101,8.033,32.046,10.631,32.351,11.039z"/>
		<path fill="#BC8A26" d="M19.881,50.868c7.273-1.732,21.205-1.903,21.205-1.903s-4.754-2.772-17.396-3.464
			C15.27,45.04,8.31,46.183,4.549,47.002c0.166,1.483,0.363,2.893,0.593,4.24C8.72,51.629,14.984,52.033,19.881,50.868z"/>
		<path fill="#BC8A26" d="M36.295,6.529c0.408,1.901,0.878,4.574,0.557,5.605c-0.519,1.674,2.731,0.302,2.426-2.829
			c-0.114-1.167-0.34-2.117-0.572-2.937c-0.41,0.296-0.702,0.513-0.702,0.513S37.355,6.728,36.295,6.529z"/>
		<path fill="#BC8A26" d="M46.66,62.947c0.084-0.217,0.241-0.637,0.501-1.406c-8.006-2.697-32.051-3.715-40.715-3.998
			c0.741,2.965,1.384,4.902,1.557,5.404H46.66z"/>
		<path fill="#BC8A26" d="M15.031,55.025c7.097,1.592,25.291,3.059,33.099,3.297c0.48-1.732,0.981-3.863,1.431-6.332
			C39.641,52.295,7.845,53.412,15.031,55.025z"/>
		<path fill="#BC8A26" d="M47.594,15.444c-1.06,0.627,2.951-0.207,6.021-3.988c0.27-1.494,0.42-3.14,0.406-4.919
			C52.777,9.75,50.725,13.593,47.594,15.444z"/>
	</g>
	<g>
		<path fill="#BC8A26" d="M65.244,43.698c-2.096-0.785-4.54-1.037-6.94-1.086c0.004,0.341,0.023,0.678,0.023,1.017
			c0,1.756-0.145,3.258-0.378,4.585C63.908,47.057,69.191,45.176,65.244,43.698z"/>
		<path fill="#BC8A26" d="M57.408,50.508c-0.211,0.658-0.459,1.239-0.725,1.773c1.813,0.448,4.299,1.113,5.957,2.526
			c0.665-0.956,1.232-1.929,1.717-2.886c-0.022-0.264-0.039-0.459-0.039-0.459S60.477,50.416,57.408,50.508z"/>
		<path fill="#BC8A26" d="M61.303,39.649c-1.897,1.4,2.338,1.458,5.764,3.793c0.055-0.392,0.258-1.897,0.486-4.105
			C65.437,38.838,62.805,38.541,61.303,39.649z"/>
		<path fill="#BC8A26" d="M59.91,21.82c-2.42,1.205,5.133,0.932,8.258,4.265c-0.034-1.417-0.102-2.815-0.236-4.149
			C65.812,21.484,61.883,20.84,59.91,21.82z"/>
		<path fill="#BC8A26" d="M65.035,26.492c-1.005-2.094-5.83-0.789-8.18-0.008c0.135,1.27,0.287,2.588,0.449,3.951
			C60.666,28.388,67.287,31.185,65.035,26.492z"/>
		<path fill="#BC8A26" d="M57.666,33.579c0.117,1.069,0.226,2.151,0.322,3.249c3.938-1.337,9.36,0.086,7.541-1.45
			C63.836,33.947,59.821,33.641,57.666,33.579z"/>
		<path fill="#BC8A26" d="M62.656,30.691c-4.887,1.128-1.059,2.492,5.32,3.59c0.09-1.414,0.159-2.892,0.195-4.415
			C66.248,30.047,64.369,30.295,62.656,30.691z"/>
		<path fill="#BC8A26" d="M56.514,22.085c3.424-2.632,9.764-2.48,7.517-3.596c-1.806-0.899-5.256-0.435-7.456,0
			C56.465,19.576,56.461,20.79,56.514,22.085z"/>
		<path fill="#BC8A26" d="M57.011,60.186c0.57-0.352,1.1-0.73,1.607-1.128c-0.534-2.486-1.892-5.251-2.326-6.091
			c-0.714,1.197-1.548,2.046-2.415,2.635C55.264,56.889,56.27,58.736,57.011,60.186z"/>
		<path fill="#BC8A26" d="M50.535,59.147c-0.385,1.123-0.618,2.34-0.758,3.59c1.547-0.209,2.92-0.608,4.205-1.094
			C52.824,58.187,51.508,56.295,50.535,59.147z"/>
	</g>
</g>
<g>
	<path fill="#323232" d="M20.931,16.709c-0.561,0-1.077,0.178-1.504,0.476c0.038-0.004,0.071-0.022,0.11-0.022
		c0.574,0,1.039,0.465,1.039,1.039c0,0.574-0.464,1.039-1.039,1.039c-0.54,0-0.969-0.417-1.02-0.943
		c-0.138,0.319-0.216,0.67-0.216,1.041c0,1.452,1.177,2.63,2.63,2.63s2.63-1.179,2.63-2.63
		C23.561,17.886,22.384,16.709,20.931,16.709z"/>
	<path fill="#323232" d="M34.915,16.946c-0.597,0-1.142,0.207-1.583,0.543c0.571,0.003,1.033,0.466,1.033,1.038
		c0,0.575-0.465,1.039-1.039,1.039c-0.428,0-0.793-0.259-0.953-0.627c-0.051,0.204-0.087,0.415-0.087,0.635
		c0,1.458,1.177,2.633,2.628,2.633c1.455,0,2.632-1.175,2.632-2.633C37.547,18.123,36.369,16.946,34.915,16.946z"/>
</g>
<g>
	<path fill="#ECD9C8" d="M33.561,62.947v-2.143c0-0.322,0.263-0.584,0.585-0.584c0.323,0,0.585,0.262,0.585,0.584v2.143h4.74V60.87
		c0-0.323,0.263-0.585,0.585-0.585c0.322,0,0.584,0.262,0.584,0.585v2.077h2.888c0.259-0.738,0.599-2.041,0.165-3.052
		c-0.779-1.817-4.546-4.026-9.482-2.599c-4.532,1.312-3.927,4.5-3.544,5.65H33.561z"/>
	<path fill="#ECD9C8" d="M14.339,62.947v-2.338c0-0.322,0.262-0.584,0.585-0.584c0.322,0,0.584,0.262,0.584,0.584v2.338h4.741
		v-2.272c0-0.323,0.262-0.585,0.584-0.585c0.323,0,0.585,0.262,0.585,0.585v2.272h2.817c0.242-0.6,0.737-2.077,0.235-3.246
		c-0.779-1.818-4.546-4.027-9.481-2.598c-4.849,1.404-3.83,4.949-3.483,5.844H14.339z"/>
</g>
</svg>
